<svg width="371" height="346" viewBox="0 0 371 346" fill="none" xmlns="http://www.w3.org/2000/svg">
<rect width="371" height="346" fill="#1E1E1E"/>
<g clip-path="url(#clip0_0_1)">
<path d="M234.848 85.3333H203.328L160 39.1339V0H112V15.3259L48 40.4139V34.1333H0V85.3333H20.8L51.84 128L20.8 170.667H0V221.867H48V215.586L112 240.674V256H160V216.866L203.312 170.667H234.832C240.439 170.653 245.814 168.272 249.78 164.044C253.747 159.817 255.983 154.086 256 148.105V107.895C255.983 101.917 253.749 96.1888 249.786 91.9615C245.823 87.7342 240.453 85.3513 234.848 85.3333ZM128 17.0667H144V34.1333H128V17.0667ZM112 33.5019V49.1179L88.688 82.5344L61.328 53.3504L112 33.5019ZM89.264 104.414L111.984 124.501L90.464 147.439L74.544 124.638L89.264 104.414ZM16 51.2H32V68.2667H16V51.2ZM41.056 85.3333H48V63.2661L79.04 96.3755L64.368 117.367L41.056 85.3333ZM32 204.8H16V187.733H32V204.8ZM41.056 170.667L64.368 138.633L79.024 159.625L48 192.751V170.667H41.056ZM61.344 202.633L88.688 173.466L112 206.882V222.498L61.344 202.633ZM144 238.933H128V221.867H144V238.933ZM148.688 204.8H130.496L100.112 161.28L112 148.599V153.6H160V136.533H176V148.105C176.049 151.647 176.892 155.125 178.459 158.249C180.026 161.373 182.272 164.051 185.008 166.059L148.688 204.8ZM128 119.467H144V136.533H128V119.467ZM176 107.895V119.467H160V102.4H112V107.401L100.112 94.72L130.496 51.2H148.688L185.008 89.9413C182.272 91.9494 180.026 94.6273 178.459 97.7509C176.892 100.875 176.049 104.353 176 107.895ZM240 135.697C239.996 140.447 238.224 145 235.074 148.357C231.924 151.714 227.653 153.6 223.2 153.6H208.8C204.344 153.6 200.071 151.712 196.921 148.351C193.77 144.991 192 140.433 192 135.68V120.32C192 117.967 192.435 115.636 193.279 113.462C194.123 111.288 195.361 109.313 196.921 107.649C198.481 105.985 200.333 104.665 202.371 103.764C204.409 102.864 206.594 102.4 208.8 102.4H223.2C227.656 102.4 231.929 104.288 235.079 107.649C238.23 111.009 240 115.567 240 120.32V135.697ZM208 119.467H224V136.533H208V119.467Z" fill="#FDF802"/>
</g>
<defs>
<clipPath id="clip0_0_1">
<rect width="371" height="346" fill="white"/>
</clipPath>
</defs>
</svg>
