<svg width="618" height="587" viewBox="0 0 618 587" fill="none" xmlns="http://www.w3.org/2000/svg">
<rect width="618" height="587" fill="#1E1E1E"/>
<g clip-path="url(#clip0_0_1)">
<path d="M544.237 208.667C524.538 208.699 505.509 216.136 490.644 229.613C475.778 243.091 466.072 261.705 463.306 282.042H437.502C435.306 270.643 430.027 260.139 422.288 251.769C414.549 243.398 404.674 237.513 393.829 234.807C382.985 232.101 371.624 232.688 361.089 236.499C350.555 240.31 341.286 247.185 334.379 256.312L271.605 226.546L345.334 123.209C355.427 131.125 367.733 135.366 380.362 135.282C392.992 135.198 405.245 130.793 415.24 122.745L470.086 184.208H438.675V208.667H509.05V135.292H485.592V165.693L430.793 104.254C435.901 95.1097 438.619 84.728 438.675 74.1458C438.675 57.929 432.496 42.3763 421.498 30.9092C410.5 19.4421 395.583 13 380.029 13C364.475 13 349.559 19.4421 338.56 30.9092C327.562 42.3763 321.383 57.929 321.383 74.1458C321.441 84.8431 324.217 95.3334 329.43 104.548L249.765 216.2L179.578 182.912C181.813 171.062 180.494 158.782 175.801 147.741L262.691 113.866L252.369 147.399L274.467 155.543L297.925 86.375L231.585 61.9167L223.75 84.9809L247.443 93.7125L161.609 127.172C153.843 119.684 144.278 114.528 133.929 112.25C123.58 109.972 112.832 110.657 102.826 114.232C92.8205 117.807 83.9293 124.14 77.0959 132.558C70.2625 140.975 65.7417 151.164 64.0131 162.044C62.2845 172.924 63.4125 184.089 67.2775 194.354C71.1425 204.62 77.6003 213.603 85.966 220.352C94.3317 227.1 104.293 231.362 114.794 232.685C125.295 234.008 135.943 232.343 145.61 227.866L194.521 293.61L146.361 361.115C136.425 356.302 125.395 354.486 114.52 355.874C103.646 357.261 93.3612 361.798 84.8327 368.968C76.3042 376.138 69.8726 385.656 66.267 396.443C62.6613 407.229 62.0258 418.854 64.4323 429.997C66.8388 441.141 72.1912 451.36 79.8829 459.494C87.5745 467.629 97.2979 473.354 107.951 476.022C118.604 478.689 129.76 478.192 140.156 474.587C150.552 470.981 159.772 464.412 166.769 455.622L248.498 494.438L223.75 503.561L231.585 526.625L297.925 502.167L274.467 432.999L252.345 441.143L262.55 474.26L177.912 434.026C179.636 428.375 180.553 422.491 180.633 416.562C180.619 412.228 180.163 407.907 179.273 403.673L250.891 369.309L332.432 478.882C326.211 487.937 322.481 498.593 321.648 509.697C320.814 520.802 322.908 531.933 327.703 541.886C332.498 551.84 339.811 560.237 348.852 566.171C357.893 572.104 368.318 575.348 379 575.551C389.681 575.754 400.212 572.909 409.455 567.323C418.698 561.737 426.3 553.623 431.439 543.858C436.579 534.094 439.061 523.05 438.616 511.921C438.171 500.792 434.817 490.002 428.916 480.717L485.592 421.625V453.25H509.05V379.875H438.675V404.333H469.007L412.331 463.425C403.107 456.998 392.304 453.473 381.212 453.269C370.119 453.065 359.204 456.191 349.768 462.275L272.754 358.816L332.667 330.053C339.316 339.687 348.516 347.09 359.14 351.353C369.764 355.616 381.351 356.555 392.479 354.055C403.607 351.555 413.794 345.724 421.791 337.277C429.789 328.83 435.249 318.134 437.502 306.5H463.306C465.586 322.7 472.282 337.876 482.599 350.222C492.915 362.567 506.417 371.561 521.496 376.134C536.576 380.706 552.598 380.664 567.655 376.013C582.712 371.362 596.17 362.297 606.427 349.898C616.684 337.499 623.308 322.288 625.509 306.076C627.711 289.864 625.398 273.334 618.845 258.454C612.293 243.573 601.777 230.969 588.55 222.143C575.323 213.316 559.942 208.639 544.237 208.667ZM380.029 37.4583C386.989 37.4583 393.792 39.61 399.578 43.6413C405.365 47.6726 409.875 53.4024 412.538 60.1061C415.201 66.8099 415.898 74.1865 414.541 81.3032C413.183 88.4199 409.832 94.957 404.91 100.088C399.989 105.219 393.72 108.713 386.894 110.128C380.068 111.544 372.993 110.817 366.563 108.041C360.134 105.264 354.638 100.562 350.772 94.5283C346.905 88.4951 344.842 81.4019 344.842 74.1458C344.854 64.4197 348.565 55.0956 355.162 48.2181C361.758 41.3407 370.701 37.4713 380.029 37.4583ZM380.029 477.708C386.989 477.708 393.792 479.86 399.578 483.891C405.365 487.923 409.875 493.652 412.538 500.356C415.201 507.06 415.898 514.437 414.541 521.553C413.183 528.67 409.832 535.207 404.91 540.338C399.989 545.469 393.72 548.963 386.894 550.378C380.068 551.794 372.993 551.067 366.563 548.291C360.134 545.514 354.638 540.812 350.772 534.778C346.905 528.745 344.842 521.652 344.842 514.396C344.854 504.67 348.565 495.346 355.162 488.468C361.758 481.591 370.701 477.721 380.029 477.708ZM86.8 171.979C86.7603 165.791 88.2228 159.692 91.0514 154.251C93.88 148.81 97.9827 144.204 102.978 140.86C107.973 137.517 113.698 135.546 119.62 135.129C125.543 134.713 131.47 135.866 136.85 138.48C142.23 141.094 146.889 145.085 150.392 150.081C153.895 155.077 156.129 160.916 156.887 167.054C157.644 173.192 156.9 179.43 154.723 185.188C152.546 190.945 149.008 196.035 144.437 199.984L141.059 202.723C135.757 206.327 129.62 208.369 123.296 208.632C116.972 208.896 110.697 207.372 105.137 204.221C99.5757 201.07 94.9356 196.41 91.7076 190.734C88.4797 185.058 86.7839 178.578 86.8 171.979ZM164.682 213.632C166.956 211.159 169.028 208.492 170.875 205.658L235.432 236.256L209.065 273.237L164.682 213.632ZM121.987 453.25C115.028 453.25 108.225 451.098 102.438 447.067C96.6518 443.036 92.1417 437.306 89.4785 430.602C86.8152 423.898 86.1184 416.522 87.4761 409.405C88.8338 402.288 92.1851 395.751 97.1062 390.621C102.027 385.49 108.297 381.996 115.123 380.58C121.948 379.164 129.023 379.891 135.453 382.668C141.883 385.444 147.378 390.147 151.245 396.18C155.111 402.213 157.175 409.306 157.175 416.562C157.163 426.289 153.451 435.613 146.855 442.49C140.259 449.368 131.316 453.237 121.987 453.25ZM169.772 381.318C168.375 379.317 166.863 377.406 165.245 375.595L209.464 313.666L236.112 349.473L169.772 381.318ZM257.975 338.981L224.008 293.293L257.319 246.626L323.729 278.128C320.917 287.765 320.65 298.014 322.955 307.796L257.975 338.981ZM380.029 330.958C373.07 330.958 366.267 328.807 360.48 324.775C354.693 320.744 350.183 315.014 347.52 308.311C344.857 301.607 344.16 294.23 345.518 287.113C346.875 279.997 350.227 273.46 355.148 268.329C360.069 263.198 366.339 259.704 373.164 258.288C379.99 256.873 387.065 257.599 393.495 260.376C399.924 263.153 405.42 267.855 409.287 273.888C413.153 279.922 415.217 287.015 415.217 294.271C415.204 303.997 411.493 313.321 404.897 320.199C398.301 327.076 389.358 330.945 380.029 330.958ZM544.237 355.417C532.638 355.417 521.3 351.831 511.656 345.112C502.011 338.393 494.495 328.843 490.056 317.67C485.617 306.497 484.456 294.203 486.718 282.342C488.981 270.481 494.567 259.586 502.769 251.034C510.97 242.483 521.42 236.659 532.796 234.3C544.172 231.941 555.964 233.151 566.68 237.779C577.396 242.407 586.556 250.245 593 260.3C599.444 270.355 602.883 282.177 602.883 294.271C602.871 310.484 596.688 326.029 585.693 337.493C574.697 348.957 559.788 355.404 544.237 355.417ZM579.425 294.271C579.425 301.527 577.361 308.62 573.495 314.653C569.628 320.687 564.133 325.389 557.703 328.166C551.273 330.942 544.198 331.669 537.373 330.253C530.547 328.838 524.277 325.344 519.356 320.213C514.435 315.082 511.084 308.545 509.726 301.428C508.368 294.312 509.065 286.935 511.728 280.231C514.392 273.527 518.902 267.798 524.688 263.766C530.475 259.735 537.278 257.583 544.237 257.583C553.566 257.596 562.509 261.466 569.105 268.343C575.701 275.221 579.413 284.545 579.425 294.271Z" fill="#FEEE0A"/>
</g>
<defs>
<clipPath id="clip0_0_1">
<rect width="563" height="587" fill="white" transform="translate(55)"/>
</clipPath>
</defs>
</svg>
