<svg width="555" height="563" viewBox="0 0 555 563" fill="none" xmlns="http://www.w3.org/2000/svg">
<path d="M481.237 195.667C461.538 195.699 442.509 203.136 427.644 216.613C412.778 230.091 403.072 248.705 400.306 269.042H374.502C372.306 257.643 367.027 247.139 359.288 238.769C351.549 230.398 341.674 224.513 330.829 221.807C319.985 219.101 308.624 219.688 298.089 223.499C287.555 227.31 278.286 234.185 271.379 243.312L208.605 213.546L282.334 110.209C292.427 118.125 304.733 122.366 317.362 122.282C329.992 122.198 342.245 117.793 352.24 109.745L407.086 171.208H375.675V195.667H446.05V122.292H422.592V152.693L367.793 91.254C372.901 82.1097 375.619 71.728 375.675 61.1458C375.675 44.929 369.496 29.3763 358.498 17.9092C347.5 6.44213 332.583 0 317.029 0C301.475 0 286.559 6.44213 275.56 17.9092C264.562 29.3763 258.383 44.929 258.383 61.1458C258.441 71.8431 261.217 82.3334 266.43 91.5475L186.765 203.2L116.578 169.912C118.813 158.062 117.494 145.782 112.801 134.741L199.691 100.866L189.369 134.399L211.467 142.543L234.925 73.375L168.585 48.9167L160.75 71.9809L184.443 80.7125L98.6086 114.172C90.8428 106.684 81.278 101.528 70.9289 99.25C60.5798 96.9719 49.8323 97.6569 39.8264 101.232C29.8205 104.807 20.9293 111.14 14.0959 119.558C7.26247 127.975 2.7417 138.164 1.01309 149.044C-0.715517 159.924 0.412498 171.089 4.27748 181.354C8.14247 191.62 14.6003 200.603 22.966 207.352C31.3317 214.1 41.2932 218.362 51.794 219.685C62.2949 221.008 72.9434 219.343 82.61 214.866L131.521 280.61L83.3607 348.115C73.4252 343.302 62.395 341.486 51.5203 342.874C40.6456 344.261 30.3612 348.798 21.8327 355.968C13.3042 363.138 6.87264 372.656 3.26699 383.443C-0.338659 394.229 -0.974234 405.854 1.4323 416.997C3.83883 428.141 9.19123 438.36 16.8829 446.494C24.5745 454.629 34.2979 460.354 44.9508 463.022C55.6038 465.689 66.7605 465.192 77.1563 461.587C87.5522 457.981 96.7715 451.412 103.769 442.622L185.498 481.438L160.75 490.561L168.585 513.625L234.925 489.167L211.467 419.999L189.345 428.143L199.55 461.26L114.912 421.026C116.636 415.375 117.553 409.491 117.633 403.562C117.619 399.228 117.163 394.907 116.273 390.673L187.891 356.309L269.432 465.882C263.211 474.937 259.481 485.593 258.648 496.697C257.814 507.802 259.908 518.933 264.703 528.886C269.498 538.84 276.811 547.237 285.852 553.171C294.893 559.104 305.318 562.348 316 562.551C326.681 562.754 337.212 559.909 346.455 554.323C355.698 548.737 363.3 540.623 368.439 530.858C373.579 521.094 376.061 510.05 375.616 498.921C375.171 487.792 371.817 477.002 365.916 467.717L422.592 408.625V440.25H446.05V366.875H375.675V391.333H406.007L349.331 450.425C340.107 443.998 329.304 440.473 318.212 440.269C307.119 440.065 296.204 443.191 286.768 449.275L209.754 345.816L269.667 317.053C276.316 326.687 285.516 334.09 296.14 338.353C306.764 342.616 318.351 343.555 329.479 341.055C340.607 338.555 350.794 332.724 358.791 324.277C366.789 315.83 372.249 305.134 374.502 293.5H400.306C402.586 309.7 409.282 324.876 419.599 337.222C429.915 349.567 443.417 358.561 458.496 363.134C473.576 367.706 489.598 367.664 504.655 363.013C519.712 358.362 533.17 349.297 543.427 336.898C553.684 324.499 560.308 309.288 562.509 293.076C564.711 276.864 562.398 260.334 555.845 245.454C549.293 230.573 538.777 217.969 525.55 209.143C512.323 200.316 496.942 195.639 481.237 195.667ZM317.029 24.4583C323.989 24.4583 330.792 26.61 336.578 30.6413C342.365 34.6726 346.875 40.4024 349.538 47.1061C352.201 53.8099 352.898 61.1865 351.541 68.3032C350.183 75.4199 346.832 81.957 341.91 87.0878C336.989 92.2187 330.72 95.7128 323.894 97.1284C317.068 98.544 309.993 97.8175 303.563 95.0407C297.134 92.2639 291.638 87.5615 287.772 81.5283C283.905 75.4951 281.842 68.4019 281.842 61.1458C281.854 51.4197 285.565 42.0956 292.162 35.2181C298.758 28.3407 307.701 24.4713 317.029 24.4583ZM317.029 464.708C323.989 464.708 330.792 466.86 336.578 470.891C342.365 474.923 346.875 480.652 349.538 487.356C352.201 494.06 352.898 501.437 351.541 508.553C350.183 515.67 346.832 522.207 341.91 527.338C336.989 532.469 330.72 535.963 323.894 537.378C317.068 538.794 309.993 538.067 303.563 535.291C297.134 532.514 291.638 527.812 287.772 521.778C283.905 515.745 281.842 508.652 281.842 501.396C281.854 491.67 285.565 482.346 292.162 475.468C298.758 468.591 307.701 464.721 317.029 464.708ZM23.8 158.979C23.7603 152.791 25.2228 146.692 28.0514 141.251C30.88 135.81 34.9827 131.204 39.9778 127.86C44.9729 124.517 50.698 122.546 56.6203 122.129C62.5426 121.713 68.4697 122.866 73.8499 125.48C79.2301 128.094 83.8887 132.085 87.392 137.081C90.8953 142.077 93.1295 147.916 93.8867 154.054C94.6439 160.192 93.8995 166.43 91.7228 172.188C89.5461 177.945 86.0077 183.035 81.4371 186.984L78.0591 189.723C72.7574 193.327 66.6196 195.369 60.2957 195.632C53.9719 195.896 47.6973 194.372 42.1365 191.221C36.5757 188.07 31.9356 183.41 28.7076 177.734C25.4797 172.058 23.7839 165.578 23.8 158.979ZM101.682 200.632C103.956 198.159 106.028 195.492 107.875 192.658L172.432 223.256L146.065 260.237L101.682 200.632ZM58.9875 440.25C52.028 440.25 45.2249 438.098 39.4383 434.067C33.6518 430.036 29.1417 424.306 26.4785 417.602C23.8152 410.898 23.1184 403.522 24.4761 396.405C25.8338 389.288 29.1851 382.751 34.1062 377.621C39.0272 372.49 45.297 368.996 52.1227 367.58C58.9484 366.164 66.0235 366.891 72.4531 369.668C78.8828 372.444 84.3784 377.147 88.2448 383.18C92.1113 389.213 94.175 396.306 94.175 403.562C94.1626 413.289 90.4513 422.613 83.8551 429.49C77.2588 436.368 68.316 440.237 58.9875 440.25ZM106.772 368.318C105.375 366.317 103.863 364.406 102.245 362.595L146.464 300.666L173.112 336.473L106.772 368.318ZM194.975 325.981L161.008 280.293L194.319 233.626L260.729 265.128C257.917 274.765 257.65 285.014 259.955 294.796L194.975 325.981ZM317.029 317.958C310.07 317.958 303.267 315.807 297.48 311.775C291.693 307.744 287.183 302.014 284.52 295.311C281.857 288.607 281.16 281.23 282.518 274.113C283.875 266.997 287.227 260.46 292.148 255.329C297.069 250.198 303.339 246.704 310.164 245.288C316.99 243.873 324.065 244.599 330.495 247.376C336.924 250.153 342.42 254.855 346.287 260.888C350.153 266.922 352.217 274.015 352.217 281.271C352.204 290.997 348.493 300.321 341.897 307.199C335.301 314.076 326.358 317.945 317.029 317.958ZM481.237 342.417C469.638 342.417 458.3 338.831 448.656 332.112C439.011 325.393 431.495 315.843 427.056 304.67C422.617 293.497 421.456 281.203 423.718 269.342C425.981 257.481 431.567 246.586 439.769 238.034C447.97 229.483 458.42 223.659 469.796 221.3C481.172 218.941 492.964 220.151 503.68 224.779C514.396 229.407 523.556 237.245 530 247.3C536.444 257.355 539.883 269.177 539.883 281.271C539.871 297.484 533.688 313.029 522.693 324.493C511.697 335.957 496.788 342.404 481.237 342.417ZM516.425 281.271C516.425 288.527 514.361 295.62 510.495 301.653C506.628 307.687 501.133 312.389 494.703 315.166C488.273 317.942 481.198 318.669 474.373 317.253C467.547 315.838 461.277 312.344 456.356 307.213C451.435 302.082 448.084 295.545 446.726 288.428C445.368 281.312 446.065 273.935 448.728 267.231C451.392 260.527 455.902 254.798 461.688 250.766C467.475 246.735 474.278 244.583 481.237 244.583C490.566 244.596 499.509 248.466 506.105 255.343C512.701 262.221 516.413 271.545 516.425 281.271Z" fill="#FEEE0A"/>
</svg>
