<svg width="400" height="400" xmlns="http://www.w3.org/2000/svg" style="background-color: #f4f4f4;">
  <!-- Brain Shape -->
  <ellipse cx="200" cy="150" rx="100" ry="60" fill="#f0c987" stroke="#d88a46" stroke-width="3" />
  <path d="M200 90 C170 70, 140 110, 110 130 Q95 150, 110 170 C140 190, 170 130, 200 150" fill="#f0c987" stroke="#d88a46" stroke-width="3" />
  <path d="M200 90 C230 70, 260 110, 290 130 Q305 150, 290 170 C260 190, 230 130, 200 150" fill="#f0c987" stroke="#d88a46" stroke-width="3" />
  
  <!-- Gear 1 -->
  <circle cx="140" cy="240" r="30" fill="#e0e0e0" stroke="#888" stroke-width="2" />
  <circle cx="140" cy="240" r="20" fill="#d0d0d0" />
  <path d="M140 210 L145 220 L135 220 Z" fill="#888" />
  <path d="M170 240 L160 235 L160 245 Z" fill="#888" />
  <path d="M140 270 L135 260 L145 260 Z" fill="#888" />
  <path d="M110 240 L120 245 L120 235 Z" fill="#888" />
  
  <!-- Gear 2 -->
  <circle cx="260" cy="240" r="30" fill="#e0e0e0" stroke="#888" stroke-width="2" />
  <circle cx="260" cy="240" r="20" fill="#d0d0d0" />
  <path d="M260 210 L265 220 L255 220 Z" fill="#888" />
  <path d="M290 240 L280 235 L280 245 Z" fill="#888" />
  <path d="M260 270 L255 260 L265 260 Z" fill="#888" />
  <path d="M230 240 L240 245 L240 235 Z" fill="#888" />
  
  <!-- Data flow lines -->
  <line x1="180" y1="150" x2="140" y2="210" stroke="#666" stroke-width="2" stroke-dasharray="4 2" />
  <line x1="220" y1="150" x2="260" y2="210" stroke="#666" stroke-width="2" stroke-dasharray="4 2" />
  
  <!-- Text -->
  <text x="130" y="330" font-size="20" font-family="Arial, sans-serif" fill="#444">Machine Learning</text>
</svg>
