<svg width="559" height="571" viewBox="0 0 559 571" fill="none" xmlns="http://www.w3.org/2000/svg">
<g filter="url(#filter0_d_1_6)">
<mask id="path-1-inside-1_1_6" fill="white">
<path d="M485.237 195.667C465.538 195.699 446.509 203.136 431.644 216.613C416.778 230.091 407.072 248.705 404.306 269.042H378.502C376.306 257.643 371.027 247.139 363.288 238.769C355.549 230.398 345.674 224.513 334.829 221.807C323.985 219.101 312.624 219.688 302.089 223.499C291.555 227.31 282.286 234.185 275.379 243.312L212.605 213.546L286.334 110.209C296.427 118.125 308.733 122.366 321.362 122.282C333.992 122.198 346.245 117.793 356.24 109.745L411.086 171.208H379.675V195.667H450.05V122.292H426.592V152.693L371.793 91.254C376.901 82.1097 379.619 71.728 379.675 61.1458C379.675 44.929 373.496 29.3763 362.498 17.9092C351.5 6.44213 336.583 0 321.029 0C305.475 0 290.559 6.44213 279.56 17.9092C268.562 29.3763 262.383 44.929 262.383 61.1458C262.441 71.8431 265.217 82.3334 270.43 91.5475L190.765 203.2L120.578 169.912C122.813 158.062 121.494 145.782 116.801 134.741L203.691 100.866L193.369 134.399L215.467 142.543L238.925 73.375L172.585 48.9167L164.75 71.9809L188.443 80.7125L102.609 114.172C94.8428 106.684 85.278 101.528 74.9289 99.25C64.5798 96.9719 53.8323 97.6569 43.8264 101.232C33.8205 104.807 24.9293 111.14 18.0959 119.558C11.2625 127.975 6.7417 138.164 5.01309 149.044C3.28448 159.924 4.4125 171.089 8.27748 181.354C12.1425 191.62 18.6003 200.603 26.966 207.352C35.3317 214.1 45.2932 218.362 55.794 219.685C66.2949 221.008 76.9434 219.343 86.61 214.866L135.521 280.61L87.3607 348.115C77.4252 343.302 66.395 341.486 55.5203 342.874C44.6456 344.261 34.3612 348.798 25.8327 355.968C17.3042 363.138 10.8726 372.656 7.26699 383.443C3.66134 394.229 3.02577 405.854 5.4323 416.997C7.83883 428.141 13.1912 438.36 20.8829 446.494C28.5745 454.629 38.2979 460.354 48.9508 463.022C59.6038 465.689 70.7605 465.192 81.1563 461.587C91.5522 457.981 100.772 451.412 107.769 442.622L189.498 481.438L164.75 490.561L172.585 513.625L238.925 489.167L215.467 419.999L193.345 428.143L203.55 461.26L118.912 421.026C120.636 415.375 121.553 409.491 121.633 403.562C121.619 399.228 121.163 394.907 120.273 390.673L191.891 356.309L273.432 465.882C267.211 474.937 263.481 485.593 262.648 496.697C261.814 507.802 263.908 518.933 268.703 528.886C273.498 538.84 280.811 547.237 289.852 553.171C298.893 559.104 309.318 562.348 320 562.551C330.681 562.754 341.212 559.909 350.455 554.323C359.698 548.737 367.3 540.623 372.439 530.858C377.579 521.094 380.061 510.05 379.616 498.921C379.171 487.792 375.817 477.002 369.916 467.717L426.592 408.625V440.25H450.05V366.875H379.675V391.333H410.007L353.331 450.425C344.107 443.998 333.304 440.473 322.212 440.269C311.119 440.065 300.204 443.191 290.768 449.275L213.754 345.816L273.667 317.053C280.316 326.687 289.516 334.09 300.14 338.353C310.764 342.616 322.351 343.555 333.479 341.055C344.607 338.555 354.794 332.724 362.791 324.277C370.789 315.83 376.249 305.134 378.502 293.5H404.306C406.586 309.7 413.282 324.876 423.599 337.222C433.915 349.567 447.417 358.561 462.496 363.134C477.576 367.706 493.598 367.664 508.655 363.013C523.712 358.362 537.17 349.297 547.427 336.898C557.684 324.499 564.308 309.288 566.509 293.076C568.711 276.864 566.398 260.334 559.845 245.454C553.293 230.573 542.777 217.969 529.55 209.143C516.323 200.316 500.942 195.639 485.237 195.667ZM321.029 24.4583C327.989 24.4583 334.792 26.61 340.578 30.6413C346.365 34.6726 350.875 40.4024 353.538 47.1061C356.201 53.8099 356.898 61.1865 355.541 68.3032C354.183 75.4199 350.832 81.957 345.91 87.0878C340.989 92.2187 334.72 95.7128 327.894 97.1284C321.068 98.544 313.993 97.8175 307.563 95.0407C301.134 92.2639 295.638 87.5615 291.772 81.5283C287.905 75.4951 285.842 68.4019 285.842 61.1458C285.854 51.4197 289.565 42.0956 296.162 35.2181C302.758 28.3407 311.701 24.4713 321.029 24.4583ZM321.029 464.708C327.989 464.708 334.792 466.86 340.578 470.891C346.365 474.923 350.875 480.652 353.538 487.356C356.201 494.06 356.898 501.437 355.541 508.553C354.183 515.67 350.832 522.207 345.91 527.338C340.989 532.469 334.72 535.963 327.894 537.378C321.068 538.794 313.993 538.067 307.563 535.291C301.134 532.514 295.638 527.812 291.772 521.778C287.905 515.745 285.842 508.652 285.842 501.396C285.854 491.67 289.565 482.346 296.162 475.468C302.758 468.591 311.701 464.721 321.029 464.708ZM27.8 158.979C27.7603 152.791 29.2228 146.692 32.0514 141.251C34.88 135.81 38.9827 131.204 43.9778 127.86C48.9729 124.517 54.698 122.546 60.6203 122.129C66.5426 121.713 72.4697 122.866 77.8499 125.48C83.2301 128.094 87.8887 132.085 91.392 137.081C94.8953 142.077 97.1295 147.916 97.8867 154.054C98.6439 160.192 97.8995 166.43 95.7228 172.188C93.5461 177.945 90.0077 183.035 85.4371 186.984L82.0591 189.723C76.7574 193.327 70.6196 195.369 64.2957 195.632C57.9719 195.896 51.6973 194.372 46.1365 191.221C40.5757 188.07 35.9356 183.41 32.7076 177.734C29.4797 172.058 27.7839 165.578 27.8 158.979ZM105.682 200.632C107.956 198.159 110.028 195.492 111.875 192.658L176.432 223.256L150.065 260.237L105.682 200.632ZM62.9875 440.25C56.028 440.25 49.2249 438.098 43.4383 434.067C37.6518 430.036 33.1417 424.306 30.4785 417.602C27.8152 410.898 27.1184 403.522 28.4761 396.405C29.8338 389.288 33.1851 382.751 38.1062 377.621C43.0272 372.49 49.297 368.996 56.1227 367.58C62.9484 366.164 70.0235 366.891 76.4531 369.668C82.8828 372.444 88.3784 377.147 92.2448 383.18C96.1113 389.213 98.175 396.306 98.175 403.562C98.1626 413.289 94.4513 422.613 87.8551 429.49C81.2588 436.368 72.316 440.237 62.9875 440.25ZM110.772 368.318C109.375 366.317 107.863 364.406 106.245 362.595L150.464 300.666L177.112 336.473L110.772 368.318ZM198.975 325.981L165.008 280.293L198.319 233.626L264.729 265.128C261.917 274.765 261.65 285.014 263.955 294.796L198.975 325.981ZM321.029 317.958C314.07 317.958 307.267 315.807 301.48 311.775C295.693 307.744 291.183 302.014 288.52 295.311C285.857 288.607 285.16 281.23 286.518 274.113C287.875 266.997 291.227 260.46 296.148 255.329C301.069 250.198 307.339 246.704 314.164 245.288C320.99 243.873 328.065 244.599 334.495 247.376C340.924 250.153 346.42 254.855 350.287 260.888C354.153 266.922 356.217 274.015 356.217 281.271C356.204 290.997 352.493 300.321 345.897 307.199C339.301 314.076 330.358 317.945 321.029 317.958ZM485.237 342.417C473.638 342.417 462.3 338.831 452.656 332.112C443.011 325.393 435.495 315.843 431.056 304.67C426.617 293.497 425.456 281.203 427.718 269.342C429.981 257.481 435.567 246.586 443.769 238.034C451.97 229.483 462.42 223.659 473.796 221.3C485.172 218.941 496.964 220.151 507.68 224.779C518.396 229.407 527.556 237.245 534 247.3C540.444 257.355 543.883 269.177 543.883 281.271C543.871 297.484 537.688 313.029 526.693 324.493C515.697 335.957 500.788 342.404 485.237 342.417ZM520.425 281.271C520.425 288.527 518.361 295.62 514.495 301.653C510.628 307.687 505.133 312.389 498.703 315.166C492.273 317.942 485.198 318.669 478.373 317.253C471.547 315.838 465.277 312.344 460.356 307.213C455.435 302.082 452.084 295.545 450.726 288.428C449.368 281.312 450.065 273.935 452.728 267.231C455.392 260.527 459.902 254.798 465.688 250.766C471.475 246.735 478.278 244.583 485.237 244.583C494.566 244.596 503.509 248.466 510.105 255.343C516.701 262.221 520.413 271.545 520.425 281.271Z"/>
</mask>
<path d="M485.237 195.667C465.538 195.699 446.509 203.136 431.644 216.613C416.778 230.091 407.072 248.705 404.306 269.042H378.502C376.306 257.643 371.027 247.139 363.288 238.769C355.549 230.398 345.674 224.513 334.829 221.807C323.985 219.101 312.624 219.688 302.089 223.499C291.555 227.31 282.286 234.185 275.379 243.312L212.605 213.546L286.334 110.209C296.427 118.125 308.733 122.366 321.362 122.282C333.992 122.198 346.245 117.793 356.24 109.745L411.086 171.208H379.675V195.667H450.05V122.292H426.592V152.693L371.793 91.254C376.901 82.1097 379.619 71.728 379.675 61.1458C379.675 44.929 373.496 29.3763 362.498 17.9092C351.5 6.44213 336.583 0 321.029 0C305.475 0 290.559 6.44213 279.56 17.9092C268.562 29.3763 262.383 44.929 262.383 61.1458C262.441 71.8431 265.217 82.3334 270.43 91.5475L190.765 203.2L120.578 169.912C122.813 158.062 121.494 145.782 116.801 134.741L203.691 100.866L193.369 134.399L215.467 142.543L238.925 73.375L172.585 48.9167L164.75 71.9809L188.443 80.7125L102.609 114.172C94.8428 106.684 85.278 101.528 74.9289 99.25C64.5798 96.9719 53.8323 97.6569 43.8264 101.232C33.8205 104.807 24.9293 111.14 18.0959 119.558C11.2625 127.975 6.7417 138.164 5.01309 149.044C3.28448 159.924 4.4125 171.089 8.27748 181.354C12.1425 191.62 18.6003 200.603 26.966 207.352C35.3317 214.1 45.2932 218.362 55.794 219.685C66.2949 221.008 76.9434 219.343 86.61 214.866L135.521 280.61L87.3607 348.115C77.4252 343.302 66.395 341.486 55.5203 342.874C44.6456 344.261 34.3612 348.798 25.8327 355.968C17.3042 363.138 10.8726 372.656 7.26699 383.443C3.66134 394.229 3.02577 405.854 5.4323 416.997C7.83883 428.141 13.1912 438.36 20.8829 446.494C28.5745 454.629 38.2979 460.354 48.9508 463.022C59.6038 465.689 70.7605 465.192 81.1563 461.587C91.5522 457.981 100.772 451.412 107.769 442.622L189.498 481.438L164.75 490.561L172.585 513.625L238.925 489.167L215.467 419.999L193.345 428.143L203.55 461.26L118.912 421.026C120.636 415.375 121.553 409.491 121.633 403.562C121.619 399.228 121.163 394.907 120.273 390.673L191.891 356.309L273.432 465.882C267.211 474.937 263.481 485.593 262.648 496.697C261.814 507.802 263.908 518.933 268.703 528.886C273.498 538.84 280.811 547.237 289.852 553.171C298.893 559.104 309.318 562.348 320 562.551C330.681 562.754 341.212 559.909 350.455 554.323C359.698 548.737 367.3 540.623 372.439 530.858C377.579 521.094 380.061 510.05 379.616 498.921C379.171 487.792 375.817 477.002 369.916 467.717L426.592 408.625V440.25H450.05V366.875H379.675V391.333H410.007L353.331 450.425C344.107 443.998 333.304 440.473 322.212 440.269C311.119 440.065 300.204 443.191 290.768 449.275L213.754 345.816L273.667 317.053C280.316 326.687 289.516 334.09 300.14 338.353C310.764 342.616 322.351 343.555 333.479 341.055C344.607 338.555 354.794 332.724 362.791 324.277C370.789 315.83 376.249 305.134 378.502 293.5H404.306C406.586 309.7 413.282 324.876 423.599 337.222C433.915 349.567 447.417 358.561 462.496 363.134C477.576 367.706 493.598 367.664 508.655 363.013C523.712 358.362 537.17 349.297 547.427 336.898C557.684 324.499 564.308 309.288 566.509 293.076C568.711 276.864 566.398 260.334 559.845 245.454C553.293 230.573 542.777 217.969 529.55 209.143C516.323 200.316 500.942 195.639 485.237 195.667ZM321.029 24.4583C327.989 24.4583 334.792 26.61 340.578 30.6413C346.365 34.6726 350.875 40.4024 353.538 47.1061C356.201 53.8099 356.898 61.1865 355.541 68.3032C354.183 75.4199 350.832 81.957 345.91 87.0878C340.989 92.2187 334.72 95.7128 327.894 97.1284C321.068 98.544 313.993 97.8175 307.563 95.0407C301.134 92.2639 295.638 87.5615 291.772 81.5283C287.905 75.4951 285.842 68.4019 285.842 61.1458C285.854 51.4197 289.565 42.0956 296.162 35.2181C302.758 28.3407 311.701 24.4713 321.029 24.4583ZM321.029 464.708C327.989 464.708 334.792 466.86 340.578 470.891C346.365 474.923 350.875 480.652 353.538 487.356C356.201 494.06 356.898 501.437 355.541 508.553C354.183 515.67 350.832 522.207 345.91 527.338C340.989 532.469 334.72 535.963 327.894 537.378C321.068 538.794 313.993 538.067 307.563 535.291C301.134 532.514 295.638 527.812 291.772 521.778C287.905 515.745 285.842 508.652 285.842 501.396C285.854 491.67 289.565 482.346 296.162 475.468C302.758 468.591 311.701 464.721 321.029 464.708ZM27.8 158.979C27.7603 152.791 29.2228 146.692 32.0514 141.251C34.88 135.81 38.9827 131.204 43.9778 127.86C48.9729 124.517 54.698 122.546 60.6203 122.129C66.5426 121.713 72.4697 122.866 77.8499 125.48C83.2301 128.094 87.8887 132.085 91.392 137.081C94.8953 142.077 97.1295 147.916 97.8867 154.054C98.6439 160.192 97.8995 166.43 95.7228 172.188C93.5461 177.945 90.0077 183.035 85.4371 186.984L82.0591 189.723C76.7574 193.327 70.6196 195.369 64.2957 195.632C57.9719 195.896 51.6973 194.372 46.1365 191.221C40.5757 188.07 35.9356 183.41 32.7076 177.734C29.4797 172.058 27.7839 165.578 27.8 158.979ZM105.682 200.632C107.956 198.159 110.028 195.492 111.875 192.658L176.432 223.256L150.065 260.237L105.682 200.632ZM62.9875 440.25C56.028 440.25 49.2249 438.098 43.4383 434.067C37.6518 430.036 33.1417 424.306 30.4785 417.602C27.8152 410.898 27.1184 403.522 28.4761 396.405C29.8338 389.288 33.1851 382.751 38.1062 377.621C43.0272 372.49 49.297 368.996 56.1227 367.58C62.9484 366.164 70.0235 366.891 76.4531 369.668C82.8828 372.444 88.3784 377.147 92.2448 383.18C96.1113 389.213 98.175 396.306 98.175 403.562C98.1626 413.289 94.4513 422.613 87.8551 429.49C81.2588 436.368 72.316 440.237 62.9875 440.25ZM110.772 368.318C109.375 366.317 107.863 364.406 106.245 362.595L150.464 300.666L177.112 336.473L110.772 368.318ZM198.975 325.981L165.008 280.293L198.319 233.626L264.729 265.128C261.917 274.765 261.65 285.014 263.955 294.796L198.975 325.981ZM321.029 317.958C314.07 317.958 307.267 315.807 301.48 311.775C295.693 307.744 291.183 302.014 288.52 295.311C285.857 288.607 285.16 281.23 286.518 274.113C287.875 266.997 291.227 260.46 296.148 255.329C301.069 250.198 307.339 246.704 314.164 245.288C320.99 243.873 328.065 244.599 334.495 247.376C340.924 250.153 346.42 254.855 350.287 260.888C354.153 266.922 356.217 274.015 356.217 281.271C356.204 290.997 352.493 300.321 345.897 307.199C339.301 314.076 330.358 317.945 321.029 317.958ZM485.237 342.417C473.638 342.417 462.3 338.831 452.656 332.112C443.011 325.393 435.495 315.843 431.056 304.67C426.617 293.497 425.456 281.203 427.718 269.342C429.981 257.481 435.567 246.586 443.769 238.034C451.97 229.483 462.42 223.659 473.796 221.3C485.172 218.941 496.964 220.151 507.68 224.779C518.396 229.407 527.556 237.245 534 247.3C540.444 257.355 543.883 269.177 543.883 281.271C543.871 297.484 537.688 313.029 526.693 324.493C515.697 335.957 500.788 342.404 485.237 342.417ZM520.425 281.271C520.425 288.527 518.361 295.62 514.495 301.653C510.628 307.687 505.133 312.389 498.703 315.166C492.273 317.942 485.198 318.669 478.373 317.253C471.547 315.838 465.277 312.344 460.356 307.213C455.435 302.082 452.084 295.545 450.726 288.428C449.368 281.312 450.065 273.935 452.728 267.231C455.392 260.527 459.902 254.798 465.688 250.766C471.475 246.735 478.278 244.583 485.237 244.583C494.566 244.596 503.509 248.466 510.105 255.343C516.701 262.221 520.413 271.545 520.425 281.271Z" fill="#FEEE0A"/>
<path d="M485.237 195.667C465.538 195.699 446.509 203.136 431.644 216.613C416.778 230.091 407.072 248.705 404.306 269.042H378.502C376.306 257.643 371.027 247.139 363.288 238.769C355.549 230.398 345.674 224.513 334.829 221.807C323.985 219.101 312.624 219.688 302.089 223.499C291.555 227.31 282.286 234.185 275.379 243.312L212.605 213.546L286.334 110.209C296.427 118.125 308.733 122.366 321.362 122.282C333.992 122.198 346.245 117.793 356.24 109.745L411.086 171.208H379.675V195.667H450.05V122.292H426.592V152.693L371.793 91.254C376.901 82.1097 379.619 71.728 379.675 61.1458C379.675 44.929 373.496 29.3763 362.498 17.9092C351.5 6.44213 336.583 0 321.029 0C305.475 0 290.559 6.44213 279.56 17.9092C268.562 29.3763 262.383 44.929 262.383 61.1458C262.441 71.8431 265.217 82.3334 270.43 91.5475L190.765 203.2L120.578 169.912C122.813 158.062 121.494 145.782 116.801 134.741L203.691 100.866L193.369 134.399L215.467 142.543L238.925 73.375L172.585 48.9167L164.75 71.9809L188.443 80.7125L102.609 114.172C94.8428 106.684 85.278 101.528 74.9289 99.25C64.5798 96.9719 53.8323 97.6569 43.8264 101.232C33.8205 104.807 24.9293 111.14 18.0959 119.558C11.2625 127.975 6.7417 138.164 5.01309 149.044C3.28448 159.924 4.4125 171.089 8.27748 181.354C12.1425 191.62 18.6003 200.603 26.966 207.352C35.3317 214.1 45.2932 218.362 55.794 219.685C66.2949 221.008 76.9434 219.343 86.61 214.866L135.521 280.61L87.3607 348.115C77.4252 343.302 66.395 341.486 55.5203 342.874C44.6456 344.261 34.3612 348.798 25.8327 355.968C17.3042 363.138 10.8726 372.656 7.26699 383.443C3.66134 394.229 3.02577 405.854 5.4323 416.997C7.83883 428.141 13.1912 438.36 20.8829 446.494C28.5745 454.629 38.2979 460.354 48.9508 463.022C59.6038 465.689 70.7605 465.192 81.1563 461.587C91.5522 457.981 100.772 451.412 107.769 442.622L189.498 481.438L164.75 490.561L172.585 513.625L238.925 489.167L215.467 419.999L193.345 428.143L203.55 461.26L118.912 421.026C120.636 415.375 121.553 409.491 121.633 403.562C121.619 399.228 121.163 394.907 120.273 390.673L191.891 356.309L273.432 465.882C267.211 474.937 263.481 485.593 262.648 496.697C261.814 507.802 263.908 518.933 268.703 528.886C273.498 538.84 280.811 547.237 289.852 553.171C298.893 559.104 309.318 562.348 320 562.551C330.681 562.754 341.212 559.909 350.455 554.323C359.698 548.737 367.3 540.623 372.439 530.858C377.579 521.094 380.061 510.05 379.616 498.921C379.171 487.792 375.817 477.002 369.916 467.717L426.592 408.625V440.25H450.05V366.875H379.675V391.333H410.007L353.331 450.425C344.107 443.998 333.304 440.473 322.212 440.269C311.119 440.065 300.204 443.191 290.768 449.275L213.754 345.816L273.667 317.053C280.316 326.687 289.516 334.09 300.14 338.353C310.764 342.616 322.351 343.555 333.479 341.055C344.607 338.555 354.794 332.724 362.791 324.277C370.789 315.83 376.249 305.134 378.502 293.5H404.306C406.586 309.7 413.282 324.876 423.599 337.222C433.915 349.567 447.417 358.561 462.496 363.134C477.576 367.706 493.598 367.664 508.655 363.013C523.712 358.362 537.17 349.297 547.427 336.898C557.684 324.499 564.308 309.288 566.509 293.076C568.711 276.864 566.398 260.334 559.845 245.454C553.293 230.573 542.777 217.969 529.55 209.143C516.323 200.316 500.942 195.639 485.237 195.667ZM321.029 24.4583C327.989 24.4583 334.792 26.61 340.578 30.6413C346.365 34.6726 350.875 40.4024 353.538 47.1061C356.201 53.8099 356.898 61.1865 355.541 68.3032C354.183 75.4199 350.832 81.957 345.91 87.0878C340.989 92.2187 334.72 95.7128 327.894 97.1284C321.068 98.544 313.993 97.8175 307.563 95.0407C301.134 92.2639 295.638 87.5615 291.772 81.5283C287.905 75.4951 285.842 68.4019 285.842 61.1458C285.854 51.4197 289.565 42.0956 296.162 35.2181C302.758 28.3407 311.701 24.4713 321.029 24.4583ZM321.029 464.708C327.989 464.708 334.792 466.86 340.578 470.891C346.365 474.923 350.875 480.652 353.538 487.356C356.201 494.06 356.898 501.437 355.541 508.553C354.183 515.67 350.832 522.207 345.91 527.338C340.989 532.469 334.72 535.963 327.894 537.378C321.068 538.794 313.993 538.067 307.563 535.291C301.134 532.514 295.638 527.812 291.772 521.778C287.905 515.745 285.842 508.652 285.842 501.396C285.854 491.67 289.565 482.346 296.162 475.468C302.758 468.591 311.701 464.721 321.029 464.708ZM27.8 158.979C27.7603 152.791 29.2228 146.692 32.0514 141.251C34.88 135.81 38.9827 131.204 43.9778 127.86C48.9729 124.517 54.698 122.546 60.6203 122.129C66.5426 121.713 72.4697 122.866 77.8499 125.48C83.2301 128.094 87.8887 132.085 91.392 137.081C94.8953 142.077 97.1295 147.916 97.8867 154.054C98.6439 160.192 97.8995 166.43 95.7228 172.188C93.5461 177.945 90.0077 183.035 85.4371 186.984L82.0591 189.723C76.7574 193.327 70.6196 195.369 64.2957 195.632C57.9719 195.896 51.6973 194.372 46.1365 191.221C40.5757 188.07 35.9356 183.41 32.7076 177.734C29.4797 172.058 27.7839 165.578 27.8 158.979ZM105.682 200.632C107.956 198.159 110.028 195.492 111.875 192.658L176.432 223.256L150.065 260.237L105.682 200.632ZM62.9875 440.25C56.028 440.25 49.2249 438.098 43.4383 434.067C37.6518 430.036 33.1417 424.306 30.4785 417.602C27.8152 410.898 27.1184 403.522 28.4761 396.405C29.8338 389.288 33.1851 382.751 38.1062 377.621C43.0272 372.49 49.297 368.996 56.1227 367.58C62.9484 366.164 70.0235 366.891 76.4531 369.668C82.8828 372.444 88.3784 377.147 92.2448 383.18C96.1113 389.213 98.175 396.306 98.175 403.562C98.1626 413.289 94.4513 422.613 87.8551 429.49C81.2588 436.368 72.316 440.237 62.9875 440.25ZM110.772 368.318C109.375 366.317 107.863 364.406 106.245 362.595L150.464 300.666L177.112 336.473L110.772 368.318ZM198.975 325.981L165.008 280.293L198.319 233.626L264.729 265.128C261.917 274.765 261.65 285.014 263.955 294.796L198.975 325.981ZM321.029 317.958C314.07 317.958 307.267 315.807 301.48 311.775C295.693 307.744 291.183 302.014 288.52 295.311C285.857 288.607 285.16 281.23 286.518 274.113C287.875 266.997 291.227 260.46 296.148 255.329C301.069 250.198 307.339 246.704 314.164 245.288C320.99 243.873 328.065 244.599 334.495 247.376C340.924 250.153 346.42 254.855 350.287 260.888C354.153 266.922 356.217 274.015 356.217 281.271C356.204 290.997 352.493 300.321 345.897 307.199C339.301 314.076 330.358 317.945 321.029 317.958ZM485.237 342.417C473.638 342.417 462.3 338.831 452.656 332.112C443.011 325.393 435.495 315.843 431.056 304.67C426.617 293.497 425.456 281.203 427.718 269.342C429.981 257.481 435.567 246.586 443.769 238.034C451.97 229.483 462.42 223.659 473.796 221.3C485.172 218.941 496.964 220.151 507.68 224.779C518.396 229.407 527.556 237.245 534 247.3C540.444 257.355 543.883 269.177 543.883 281.271C543.871 297.484 537.688 313.029 526.693 324.493C515.697 335.957 500.788 342.404 485.237 342.417ZM520.425 281.271C520.425 288.527 518.361 295.62 514.495 301.653C510.628 307.687 505.133 312.389 498.703 315.166C492.273 317.942 485.198 318.669 478.373 317.253C471.547 315.838 465.277 312.344 460.356 307.213C455.435 302.082 452.084 295.545 450.726 288.428C449.368 281.312 450.065 273.935 452.728 267.231C455.392 260.527 459.902 254.798 465.688 250.766C471.475 246.735 478.278 244.583 485.237 244.583C494.566 244.596 503.509 248.466 510.105 255.343C516.701 262.221 520.413 271.545 520.425 281.271Z" stroke="black" stroke-width="2" mask="url(#path-1-inside-1_1_6)"/>
</g>
<defs>
<filter id="filter0_d_1_6" x="0" y="0" width="571.318" height="570.561" filterUnits="userSpaceOnUse" color-interpolation-filters="sRGB">
<feFlood flood-opacity="0" result="BackgroundImageFix"/>
<feColorMatrix in="SourceAlpha" type="matrix" values="0 0 0 0 0 0 0 0 0 0 0 0 0 0 0 0 0 0 127 0" result="hardAlpha"/>
<feOffset dy="4"/>
<feGaussianBlur stdDeviation="2"/>
<feComposite in2="hardAlpha" operator="out"/>
<feColorMatrix type="matrix" values="0 0 0 0 0 0 0 0 0 0 0 0 0 0 0 0 0 0 0.25 0"/>
<feBlend mode="normal" in2="BackgroundImageFix" result="effect1_dropShadow_1_6"/>
<feBlend mode="normal" in="SourceGraphic" in2="effect1_dropShadow_1_6" result="shape"/>
</filter>
</defs>
</svg>
